<?xml version="1.0" encoding="UTF-8"?>
<svg id="Layer_2" data-name="Layer 2" xmlns="http://www.w3.org/2000/svg" viewBox="0 0 63.1 63.49">
  <defs>
    <style>
      .cls-1 {
        fill: #fff;
        fill-rule: evenodd;
        stroke-width: 0px;
      }
    </style>
  </defs>
  <g id="Layer_1-2" data-name="Layer 1">
    <g>
      <path class="cls-1" d="m62.72,22.91c3.31-16.07-16.15-25.52-26.32-6.28C33.14-4.21,8.95-5.59,1,13.2c-.38.88-.71,1.8-1,2.72.63-2.01,3.22-2.3,2.97.13-.71,5.77-.42,9.54,0,12.64.21,1.38,1.51,1.34,1.55-.17,0-6.78.88-14.69,2.64-20,.75-2.34,3.64-2.3,3.22.67-.75,5.15-1.21,10.29-1.34,15.48-.08,1.76,1.63,2.09,1.8,0,.46-5.82,1.34-12.85,2.8-17.95.71-2.51,3.47-2.01,3.22.33-.71,5.57-1.13,11.17-1.38,16.78-.04,1.92,1.92,2.55,2.13-.08.33-4.18.96-8.83,2.01-12.85.59-2.26,3.26-2.05,3.14.38-.54,9.67-.88,16.86-.5,21.63.17,1.92,1.84,2.13,2.89.75.79-1.05,1.76-3.18,2.97-4.64,2.89-3.47,6.49-.54,4.52,3.72-1.21,2.72-2.51,5.69-3.43,8.79-3.68,12.55,1.63,20.92,15.15,21.97-4.77-4.52-.88-10.42,2.51-14.31,5.23-5.94,13.93-16.82,15.86-26.28h0Z"/>
      <g>
        <path class="cls-1" d="m10.38,9.18c-.75,5.15-1.21,10.29-1.34,15.48-.04,1.46,1.09,1.92,1.59.88v-.08c.13-5.19.59-10.38,1.34-15.48.25-1.84-.75-2.55-1.72-2.3.13.38.21.88.13,1.51h0Z"/>
        <path class="cls-1" d="m16.86,7.05c-.71,5.57-1.13,11.17-1.38,16.78-.04,1.42,1,2.13,1.63,1.38,0-.17-.04-.38-.04-.59.25-5.61.67-11.21,1.38-16.82.17-1.42-.84-2.13-1.76-1.92.13.29.21.71.17,1.17h0Z"/>
        <path class="cls-1" d="m22.76,11.27c-.54,9.67-.88,16.86-.5,21.63.13,1.34.96,1.84,1.8,1.59-.08-.25-.17-.5-.21-.84-.38-4.73-.04-11.97.5-21.63.08-1.46-.88-2.13-1.76-1.88.13.29.21.67.17,1.13h0Z"/>
        <path class="cls-1" d="m44.35,63.49c-12.39-1.51-17.11-8.95-13.56-21.17.92-3.1,2.22-6.11,3.43-8.79,1.34-2.93.08-5.23-1.72-5.27.8.92,1,2.55.13,4.48-1.21,2.72-2.51,5.69-3.43,8.79-3.68,12.55,1.63,20.92,15.15,21.97h0Z"/>
      </g>
      <path class="cls-1" d="m36.4,16.63c8.62-12.09,24.65-8.87,23.64,7.53-.33,4.73-1.92,9.54-3.72,12.76,2.97-4.52,5.48-9.46,6.4-14.02,3.31-16.07-16.15-25.52-26.32-6.28h0Z"/>
    </g>
  </g>
</svg>