<?xml version="1.0" encoding="UTF-8"?>
<svg id="Layer_2" data-name="Layer 2" xmlns="http://www.w3.org/2000/svg" xmlns:xlink="http://www.w3.org/1999/xlink" viewBox="0 0 227.11 63.49">
  <defs>
    <style>
      .cls-1 {
        fill: url(#linear-gradient-3);
      }

      .cls-1, .cls-2, .cls-3, .cls-4, .cls-5, .cls-6, .cls-7, .cls-8 {
        stroke-width: 0px;
      }

      .cls-1, .cls-3, .cls-4, .cls-5, .cls-6, .cls-7 {
        fill-rule: evenodd;
      }

      .cls-9 {
        opacity: .4;
      }

      .cls-2 {
        fill: #fff;
      }

      .cls-3 {
        fill: url(#linear-gradient);
      }

      .cls-4 {
        fill: url(#linear-gradient-2);
      }

      .cls-5 {
        fill: url(#linear-gradient-5);
      }

      .cls-6 {
        fill: url(#linear-gradient-6);
      }

      .cls-7 {
        fill: url(#linear-gradient-4);
      }

      .cls-8 {
        fill: #5abc81;
      }
    </style>
    <linearGradient id="linear-gradient" x1="31.94" y1="-15.33" x2="30.88" y2="73.11" gradientUnits="userSpaceOnUse">
      <stop offset="0" stop-color="#a0d186"/>
      <stop offset=".32" stop-color="#87cb9e"/>
      <stop offset=".7" stop-color="#00ab9e"/>
      <stop offset="1" stop-color="#1a7a8f"/>
    </linearGradient>
    <linearGradient id="linear-gradient-2" x1="11.08" y1="-29.96" x2="10.03" y2="58.47" xlink:href="#linear-gradient"/>
    <linearGradient id="linear-gradient-3" x1="17.53" y1="-30.21" x2="16.47" y2="58.23" xlink:href="#linear-gradient"/>
    <linearGradient id="linear-gradient-4" x1="23.83" y1="-30.96" x2="22.78" y2="57.48" xlink:href="#linear-gradient"/>
    <linearGradient id="linear-gradient-5" x1="37.2" y1="-26.21" x2="36.14" y2="62.23" xlink:href="#linear-gradient"/>
    <linearGradient id="linear-gradient-6" x1="40.42" y1="1.87" x2="59.75" y2="30.54" xlink:href="#linear-gradient"/>
  </defs>
  <g id="Layer_1-2" data-name="Layer 1">
    <g>
      <g class="cls-9">
        <path class="cls-2" d="m82.9,27.97v2.83s-1.13,0-1.13,0v-8.57h5.86v.45h-4.74v4.49s.93-.22.93-.22c.35-.08.65-.17.9-.25s.48-.19.68-.31c.2-.12.39-.26.57-.42.18-.16.36-.35.54-.57l.62.51c-.15.27-.36.48-.62.61-.26.13-.54.23-.84.3-.3.07-.62.12-.95.16s-.66.11-.97.21l-.34.11c-.15.04-.28.12-.37.24s-.14.26-.14.42Z"/>
        <path class="cls-2" d="m93.64,25h1.14v4.81c.02.21.05.39.11.54.06.15.2.23.41.23v.3c-.34.02-.61,0-.83-.05-.21-.06-.38-.15-.5-.28-.12-.12-.2-.28-.25-.47-.05-.19-.07-.39-.08-.62-.06.13-.16.28-.29.46-.13.18-.29.34-.47.5-.18.15-.39.28-.63.39-.23.11-.49.16-.76.16-.47,0-.85-.06-1.15-.18-.3-.12-.54-.28-.72-.48-.18-.21-.3-.45-.36-.73-.06-.28-.1-.58-.1-.91v-3.69h1.12v3.49s0,.08,0,.12,0,.08,0,.12v.29c0,.19.01.39.04.59.02.2.08.38.16.54s.21.29.37.39.38.15.66.15c.18,0,.4-.04.65-.12s.48-.22.7-.41c.22-.19.41-.45.56-.77s.23-.71.23-1.18v-3.21Z"/>
        <path class="cls-2" d="m98.06,30.8h-1.12v-5.06c-.02-.16-.07-.3-.14-.42-.07-.12-.19-.18-.37-.18v-.3c.35-.02.62,0,.83.05.21.06.37.16.48.29s.19.3.22.49c.04.19.06.41.06.65.07-.14.17-.29.3-.47.13-.17.29-.34.48-.49.19-.15.41-.28.65-.39.24-.1.51-.16.8-.16.46,0,.84.06,1.14.18.3.12.53.28.71.49.17.21.29.45.36.72.07.28.1.58.1.9v3.69h-1.14v-3.49c0-.2,0-.43,0-.68s-.02-.49-.08-.72c-.06-.23-.18-.41-.34-.57s-.43-.23-.79-.23c-.19,0-.4.06-.65.17s-.48.28-.71.51c-.22.23-.41.51-.56.86s-.23.75-.23,1.22v2.94Z"/>
        <path class="cls-2" d="m111.07,30.91c-.3.02-.55.01-.75-.03s-.36-.12-.48-.22c-.12-.1-.21-.22-.27-.37s-.1-.31-.12-.5c-.21.31-.49.59-.84.82s-.84.34-1.46.34c-.49,0-.93-.08-1.3-.24s-.7-.38-.96-.66c-.26-.28-.46-.6-.6-.98s-.21-.78-.21-1.21.06-.82.19-1.19c.13-.37.32-.69.57-.97.25-.28.57-.5.94-.65.37-.16.81-.24,1.31-.24.53,0,1,.15,1.4.45.4.3.71.69.95,1.17v-4.34h1.11s0,7.9,0,7.9c.02.16.07.3.14.42.07.12.19.18.37.18v.3Zm-5.82-3.04c0,.31.05.63.15.96.1.33.24.62.42.88.18.26.4.48.66.65s.55.25.87.25c.21,0,.42-.03.64-.08.22-.05.42-.14.6-.27.18-.13.35-.31.5-.53.15-.23.26-.51.33-.85v-1.73c-.06-.24-.16-.47-.3-.69-.13-.22-.29-.41-.47-.58-.18-.16-.38-.3-.6-.39-.22-.1-.46-.15-.71-.15-.32,0-.61.07-.88.22s-.48.34-.66.57c-.18.24-.32.51-.42.81-.1.3-.14.61-.14.92Z"/>
        <path class="cls-2" d="m112.28,29.67c0-.43.13-.78.4-1.04.27-.26.62-.47,1.04-.63.42-.16.9-.28,1.42-.37.52-.09,1.04-.18,1.55-.28v-.54c0-.31-.05-.57-.15-.79-.1-.22-.23-.4-.39-.54s-.35-.24-.56-.3c-.21-.06-.43-.08-.66-.07-.19,0-.37.05-.56.13-.18.08-.36.18-.52.31-.16.13-.3.29-.42.47-.12.18-.21.37-.27.58l-.54-.23c.15-.52.45-.9.88-1.15.43-.25.91-.38,1.43-.4.35-.02.7.02,1.05.11.35.09.66.22.93.4.27.18.5.4.66.66.17.26.25.56.25.9v2.33c0,.13,0,.27,0,.44,0,.16,0,.31.04.44.03.13.08.25.15.34.07.09.18.14.34.14v.3c-.35.02-.62,0-.83-.06s-.37-.16-.5-.28c-.12-.12-.2-.28-.25-.47-.05-.19-.07-.4-.08-.63-.06.11-.15.26-.27.44-.11.18-.27.35-.47.51-.2.17-.44.31-.73.42-.29.12-.65.18-1.08.18-.26,0-.5-.02-.72-.07-.23-.04-.42-.12-.59-.22s-.3-.24-.41-.4-.15-.37-.15-.61Zm2.32.92c.27,0,.52-.06.76-.19.24-.12.45-.29.64-.48.19-.2.34-.42.47-.66.12-.24.2-.48.23-.71v-.95c-.41.07-.82.15-1.21.23-.4.08-.76.18-1.08.31s-.58.28-.77.48c-.2.19-.3.44-.3.75,0,.08.02.19.05.33.03.14.09.28.18.41s.22.25.38.34c.17.1.38.15.66.15Z"/>
        <path class="cls-2" d="m122.61,25.11c-.44,0-.8.08-1.08.24-.28.16-.5.37-.65.64-.16.27-.26.56-.32.89-.06.33-.08.66-.08,1s.04.66.13.99c.09.33.22.63.41.89.18.27.41.48.68.65.27.17.59.25.96.25.49,0,.9-.06,1.24-.19s.61-.27.82-.44.37-.34.48-.52c.11-.18.18-.32.22-.44l.19.06c-.08.21-.2.42-.36.64-.16.22-.36.41-.6.59s-.53.32-.86.44c-.33.11-.71.17-1.14.17-.48,0-.93-.08-1.34-.24-.41-.16-.76-.37-1.05-.65-.29-.28-.53-.6-.7-.98s-.25-.78-.25-1.23.08-.87.25-1.24.4-.71.7-.98.65-.49,1.06-.63.84-.22,1.31-.22c.58,0,1.11.09,1.59.28.48.19.84.42,1.08.69l-.41.47c-.12-.12-.25-.25-.4-.38-.15-.13-.31-.26-.49-.37-.18-.11-.39-.21-.62-.28-.23-.08-.49-.11-.78-.11Z"/>
        <path class="cls-2" d="m127.16,24.99h1.12v6.49c0,.53-.16.96-.47,1.3-.31.33-.75.5-1.3.5-.24,0-.41,0-.5-.02-.09-.02-.15-.03-.19-.04v-.23s.05,0,.09,0,.12,0,.24,0c.39,0,.65-.11.8-.33.14-.22.22-.63.22-1.24v-6.44Zm-.13-1.38c0-.18.07-.34.2-.48.13-.13.29-.2.48-.2s.36.07.5.2c.14.13.2.29.2.48s-.07.34-.2.47c-.14.13-.3.19-.5.19s-.34-.06-.48-.19c-.13-.13-.2-.29-.2-.47Z"/>
        <path class="cls-2" d="m130.06,29.67c0-.43.13-.78.4-1.04.27-.26.62-.47,1.04-.63.42-.16.9-.28,1.42-.37.52-.09,1.04-.18,1.55-.28v-.54c0-.31-.05-.57-.15-.79-.1-.22-.23-.4-.39-.54s-.35-.24-.56-.3c-.21-.06-.43-.08-.66-.07-.19,0-.37.05-.56.13-.18.08-.36.18-.52.31-.16.13-.3.29-.42.47-.12.18-.21.37-.27.58l-.54-.23c.15-.52.45-.9.88-1.15.43-.25.91-.38,1.43-.4.35-.02.7.02,1.05.11.35.09.66.22.93.4.27.18.5.4.66.66.17.26.25.56.25.9v2.33c0,.13,0,.27,0,.44,0,.16,0,.31.04.44.03.13.08.25.15.34.07.09.18.14.34.14v.3c-.35.02-.62,0-.83-.06s-.37-.16-.5-.28c-.12-.12-.2-.28-.25-.47-.05-.19-.07-.4-.08-.63-.06.11-.15.26-.27.44-.11.18-.27.35-.47.51-.2.17-.44.31-.73.42-.29.12-.65.18-1.08.18-.26,0-.5-.02-.72-.07-.23-.04-.42-.12-.59-.22s-.3-.24-.41-.4-.15-.37-.15-.61Zm2.32.92c.27,0,.52-.06.76-.19.24-.12.45-.29.64-.48.19-.2.34-.42.47-.66.12-.24.2-.48.23-.71v-.95c-.41.07-.82.15-1.21.23-.4.08-.76.18-1.08.31s-.58.28-.77.48c-.2.19-.3.44-.3.75,0,.08.02.19.05.33.03.14.09.28.18.41s.22.25.38.34c.17.1.38.15.66.15Z"/>
      </g>
      <g>
        <g>
          <path class="cls-2" d="m58.48,55.78c0,1.34.07,2.45.2,3.33.13.88.36,1.59.68,2.11.32.52.73.89,1.24,1.1s1.14.32,1.88.32c1.54,0,2.76-.52,3.65-1.56s1.34-2.77,1.34-5.2v-16.98h3.26v16.98c0,1.04-.19,2.03-.56,2.96s-.91,1.74-1.61,2.43c-.7.69-1.55,1.23-2.55,1.63-1,.4-2.13.59-3.4.59-2.65,0-4.59-.71-5.82-2.12-1.23-1.41-1.85-3.28-1.85-5.59h3.53Z"/>
          <path class="cls-2" d="m93.62,58.36c-.82,1.56-1.9,2.81-3.26,3.74s-3.1,1.39-5.23,1.39c-1.36,0-2.63-.19-3.8-.58s-2.2-.95-3.07-1.7-1.55-1.66-2.04-2.75c-.49-1.09-.73-2.32-.73-3.7,0-1.29.26-2.46.78-3.51.52-1.05,1.21-1.96,2.05-2.72.85-.76,1.82-1.35,2.92-1.77s2.22-.63,3.38-.63c1.43,0,2.69.21,3.8.63,1.11.42,2.04,1,2.8,1.75s1.34,1.65,1.75,2.7c.41,1.05.61,2.21.61,3.48v.68h-14.81c.02.72.12,1.5.31,2.33.18.83.52,1.59,1.02,2.29.5.7,1.19,1.29,2.07,1.75.88.47,2.02.7,3.4.7,1.13,0,2.1-.15,2.9-.44.8-.29,1.49-.66,2.07-1.09.58-.43,1.06-.9,1.46-1.43.4-.52.73-1,1-1.43l.61.31Zm-2.89-3.67c0-2.36-.49-4.22-1.48-5.59-.98-1.37-2.53-2.05-4.64-2.05s-3.58.68-4.48,2.05c-.91,1.37-1.36,3.23-1.36,5.59h11.95Z"/>
          <path class="cls-2" d="m97.29,59.18c.27.34.59.71.97,1.12.37.41.79.78,1.26,1.12.46.34.98.63,1.54.87.57.24,1.2.36,1.9.36.59,0,1.2-.04,1.83-.12s1.22-.23,1.75-.44.97-.52,1.31-.9c.34-.38.51-.88.51-1.49s-.13-1.06-.39-1.41c-.26-.35-.61-.63-1.03-.85-.43-.22-.92-.38-1.46-.49-.54-.11-1.09-.21-1.63-.31-.91-.16-1.81-.34-2.7-.54s-1.69-.49-2.39-.87c-.7-.37-1.27-.87-1.7-1.48-.43-.61-.65-1.39-.65-2.34,0-.7.19-1.37.56-2s.88-1.19,1.53-1.68c.65-.49,1.4-.87,2.27-1.15.87-.28,1.79-.42,2.77-.42,1.56,0,2.83.2,3.8.61.97.41,1.73.88,2.27,1.43l-1.05,1.29c-.23-.2-.5-.45-.83-.73s-.71-.55-1.15-.8c-.44-.25-.94-.46-1.49-.63-.56-.17-1.18-.25-1.88-.25-.43,0-.92.04-1.46.13-.54.09-1.05.25-1.53.48s-.88.52-1.21.88c-.33.36-.49.8-.49,1.32,0,.66.15,1.19.44,1.6.29.41.69.74,1.19.99.5.25,1.06.44,1.68.58.62.14,1.25.26,1.88.37.77.14,1.55.29,2.34.46.79.17,1.51.42,2.16.77.64.34,1.17.81,1.58,1.41.41.6.61,1.4.61,2.39,0,.57-.15,1.15-.44,1.75s-.74,1.15-1.32,1.65c-.59.5-1.33.9-2.22,1.21-.9.31-1.94.46-3.14.46-.97,0-1.85-.09-2.61-.27-.77-.18-1.45-.42-2.04-.71-.59-.29-1.09-.62-1.51-.98-.42-.36-.77-.72-1.04-1.09l1.22-1.26Z"/>
          <path class="cls-2" d="m119.77,42.74v3.91h4.11v.98h-4.11v11.75c0,.75.22,1.37.65,1.87.43.5,1.19.75,2.27.75.57,0,.96-.02,1.19-.07v.98c-.14.05-.4.1-.78.15-.39.06-.87.08-1.46.08-1.54,0-2.77-.4-3.68-1.21-.92-.8-1.37-1.95-1.37-3.45v-10.87h-3.63v-.98h3.7v-3.91h3.12Z"/>
          <path class="cls-2" d="m145.38,58.36c-.82,1.56-1.9,2.81-3.26,3.74s-3.1,1.39-5.23,1.39c-1.36,0-2.63-.19-3.8-.58s-2.2-.95-3.07-1.7-1.55-1.66-2.04-2.75c-.49-1.09-.73-2.32-.73-3.7,0-1.29.26-2.46.78-3.51.52-1.05,1.21-1.96,2.05-2.72.85-.76,1.82-1.35,2.92-1.77s2.22-.63,3.38-.63c1.43,0,2.69.21,3.8.63,1.11.42,2.04,1,2.8,1.75s1.34,1.65,1.75,2.7c.41,1.05.61,2.21.61,3.48v.68h-14.81c.02.72.12,1.5.31,2.33.18.83.52,1.59,1.02,2.29.5.7,1.19,1.29,2.07,1.75.88.47,2.02.7,3.4.7,1.13,0,2.1-.15,2.9-.44.8-.29,1.49-.66,2.07-1.09.58-.43,1.06-.9,1.46-1.43.4-.52.73-1,1-1.43l.61.31Zm-2.89-3.67c0-2.36-.49-4.22-1.48-5.59-.98-1.37-2.53-2.05-4.64-2.05s-3.58.68-4.48,2.05c-.91,1.37-1.36,3.23-1.36,5.59h11.95Z"/>
          <path class="cls-2" d="m149.04,59.18c.27.34.59.71.97,1.12.37.41.79.78,1.26,1.12.46.34.98.63,1.54.87.57.24,1.2.36,1.9.36.59,0,1.2-.04,1.83-.12s1.22-.23,1.75-.44.97-.52,1.31-.9c.34-.38.51-.88.51-1.49s-.13-1.06-.39-1.41c-.26-.35-.61-.63-1.03-.85-.43-.22-.92-.38-1.46-.49-.54-.11-1.09-.21-1.63-.31-.91-.16-1.81-.34-2.7-.54s-1.69-.49-2.39-.87c-.7-.37-1.27-.87-1.7-1.48-.43-.61-.65-1.39-.65-2.34,0-.7.19-1.37.56-2s.88-1.19,1.53-1.68c.65-.49,1.4-.87,2.27-1.15.87-.28,1.79-.42,2.77-.42,1.56,0,2.83.2,3.8.61.97.41,1.73.88,2.27,1.43l-1.05,1.29c-.23-.2-.5-.45-.83-.73s-.71-.55-1.15-.8c-.44-.25-.94-.46-1.49-.63-.56-.17-1.18-.25-1.88-.25-.43,0-.92.04-1.46.13-.54.09-1.05.25-1.53.48s-.88.52-1.21.88c-.33.36-.49.8-.49,1.32,0,.66.15,1.19.44,1.6.29.41.69.74,1.19.99.5.25,1.06.44,1.68.58.62.14,1.25.26,1.88.37.77.14,1.55.29,2.34.46.79.17,1.51.42,2.16.77.64.34,1.17.81,1.58,1.41.41.6.61,1.4.61,2.39,0,.57-.15,1.15-.44,1.75s-.74,1.15-1.32,1.65c-.59.5-1.33.9-2.22,1.21-.9.31-1.94.46-3.14.46-.97,0-1.85-.09-2.61-.27-.77-.18-1.45-.42-2.04-.71-.59-.29-1.09-.62-1.51-.98-.42-.36-.77-.72-1.04-1.09l1.22-1.26Zm8.59-19.59l-3.97,4.28h-.78l1.8-4.28h2.96Z"/>
        </g>
        <g>
          <path class="cls-8" d="m193.26,62.98h-3.19v-19.87l-10.39,16.57-10.66-16.57v19.87h-1.53v-24.08h3.26l10.12,15.89,10.08-15.89h2.31v24.08Z"/>
          <path class="cls-8" d="m207.11,62.98v-8.86c-1.34-.7-2.62-1.63-3.85-2.78-1.23-1.16-2.31-2.42-3.24-3.8-.93-1.38-1.66-2.82-2.19-4.31-.53-1.49-.77-2.93-.73-4.31h3.36c.11,1.13.31,2.38.58,3.74.27,1.36.68,2.7,1.24,4.02.55,1.32,1.27,2.55,2.16,3.69.88,1.13,1.98,2.04,3.29,2.72h2.17c1.34-.68,2.44-1.58,3.31-2.72.87-1.13,1.58-2.36,2.14-3.69.55-1.32.97-2.66,1.24-4.02.27-1.36.46-2.6.58-3.74h3.4c.04,1.4-.21,2.86-.77,4.36-.55,1.51-1.3,2.96-2.24,4.35-.94,1.39-2.03,2.67-3.28,3.82-1.25,1.15-2.55,2.07-3.91,2.75v8.79h-3.26Z"/>
          <path class="cls-8" d="m222.66,60.95c0-.61.22-1.14.65-1.58.43-.44.95-.66,1.56-.66s1.14.22,1.58.66.66.97.66,1.58-.22,1.13-.66,1.56-.97.64-1.58.64-1.13-.21-1.56-.64c-.43-.43-.65-.95-.65-1.56Zm4.21-22.04l-.85,17.18h-2.27l-.88-17.18h4.01Z"/>
        </g>
      </g>
      <g>
        <path class="cls-3" d="m62.72,22.91c3.31-16.07-16.15-25.52-26.32-6.28C33.14-4.21,8.95-5.59,1,13.2c-.38.88-.71,1.8-1,2.72.63-2.01,3.22-2.3,2.97.13-.71,5.77-.42,9.54,0,12.64.21,1.38,1.51,1.34,1.55-.17,0-6.78.88-14.69,2.64-20,.75-2.34,3.64-2.3,3.22.67-.75,5.15-1.21,10.29-1.34,15.48-.08,1.76,1.63,2.09,1.8,0,.46-5.82,1.34-12.85,2.8-17.95.71-2.51,3.47-2.01,3.22.33-.71,5.57-1.13,11.17-1.38,16.78-.04,1.92,1.92,2.55,2.13-.08.33-4.18.96-8.83,2.01-12.85.59-2.26,3.26-2.05,3.14.38-.54,9.67-.88,16.86-.5,21.63.17,1.92,1.84,2.13,2.89.75.79-1.05,1.76-3.18,2.97-4.64,2.89-3.47,6.49-.54,4.52,3.72-1.21,2.72-2.51,5.69-3.43,8.79-3.68,12.55,1.63,20.92,15.15,21.97-4.77-4.52-.88-10.42,2.51-14.31,5.23-5.94,13.93-16.82,15.86-26.28h0Z"/>
        <g>
          <path class="cls-4" d="m10.38,9.18c-.75,5.15-1.21,10.29-1.34,15.48-.04,1.46,1.09,1.92,1.59.88v-.08c.13-5.19.59-10.38,1.34-15.48.25-1.84-.75-2.55-1.72-2.3.13.38.21.88.13,1.51h0Z"/>
          <path class="cls-1" d="m16.86,7.05c-.71,5.57-1.13,11.17-1.38,16.78-.04,1.42,1,2.13,1.63,1.38,0-.17-.04-.38-.04-.59.25-5.61.67-11.21,1.38-16.82.17-1.42-.84-2.13-1.76-1.92.13.29.21.71.17,1.17h0Z"/>
          <path class="cls-7" d="m22.76,11.27c-.54,9.67-.88,16.86-.5,21.63.13,1.34.96,1.84,1.8,1.59-.08-.25-.17-.5-.21-.84-.38-4.73-.04-11.97.5-21.63.08-1.46-.88-2.13-1.76-1.88.13.29.21.67.17,1.13h0Z"/>
          <path class="cls-5" d="m44.35,63.49c-12.39-1.51-17.11-8.95-13.56-21.17.92-3.1,2.22-6.11,3.43-8.79,1.34-2.93.08-5.23-1.72-5.27.8.92,1,2.55.13,4.48-1.21,2.72-2.51,5.69-3.43,8.79-3.68,12.55,1.63,20.92,15.15,21.97h0Z"/>
        </g>
        <path class="cls-6" d="m36.4,16.63c8.62-12.09,24.65-8.87,23.64,7.53-.33,4.73-1.92,9.54-3.72,12.76,2.97-4.52,5.48-9.46,6.4-14.02,3.31-16.07-16.15-25.52-26.32-6.28h0Z"/>
      </g>
      <g class="cls-9">
        <rect class="cls-2" x="139.62" y="26.16" width="87.25" height=".71"/>
        <rect class="cls-2" x="67.71" y="26.16" width="8.93" height=".71"/>
      </g>
    </g>
  </g>
</svg>